<mxfile host="Electron" modified="2024-03-27T12:58:32.425Z" agent="Mozilla/5.0 (Windows NT 10.0; Win64; x64) AppleWebKit/537.36 (KHTML, like Gecko) draw.io/24.0.4 Chrome/120.0.6099.109 Electron/28.1.0 Safari/537.36" etag="psRdqTF2K2XI_Ne_btKc" version="24.0.4" type="device">
  <diagram name="Page-1" id="E-y5hwstEVbzXf5OG7DH">
    <mxGraphModel dx="1990" dy="1393" grid="0" gridSize="10" guides="1" tooltips="1" connect="1" arrows="1" fold="1" page="0" pageScale="1" pageWidth="850" pageHeight="1100" background="#ffffff" math="0" shadow="0">
      <root>
        <mxCell id="0" />
        <mxCell id="1" parent="0" />
        <UserObject label="&lt;div style=&quot;font-size: 1px&quot;&gt;&lt;p style=&quot;text-align:left;margin-left:0;margin-right:0;margin-top:0px;margin-bottom:0px;text-indent:0;vertical-align:middle;direction:ltr;&quot;&gt;&lt;font style=&quot;font-size:33.87px;font-family:Segoe UI Semibold;color:#000000;direction:ltr;letter-spacing:0px;line-height:120%;opacity:1&quot;&gt;&lt;b&gt;Management &lt;/b&gt;&lt;/font&gt;&lt;font style=&quot;font-size:33.87px;font-family:Segoe UI Semibold;color:#000000;direction:ltr;letter-spacing:0px;line-height:120%;opacity:1&quot;&gt;&lt;b&gt;G&lt;/b&gt;&lt;/font&gt;&lt;font style=&quot;font-size:33.87px;font-family:Segoe UI Semibold;color:#000000;direction:ltr;letter-spacing:0px;line-height:120%;opacity:1&quot;&gt;&lt;b&gt;roup &lt;/b&gt;&lt;/font&gt;&lt;font style=&quot;font-size:33.87px;font-family:Segoe UI Semibold;color:#000000;direction:ltr;letter-spacing:0px;line-height:120%;opacity:1&quot;&gt;&lt;b&gt;&amp;amp;&lt;/b&gt;&lt;/font&gt;&lt;font style=&quot;font-size:33.87px;font-family:Segoe UI Semibold;color:#000000;direction:ltr;letter-spacing:0px;line-height:120%;opacity:1&quot;&gt;&lt;b&gt; &lt;/b&gt;&lt;/font&gt;&lt;font style=&quot;font-size:33.87px;font-family:Segoe UI Semibold;color:#000000;direction:ltr;letter-spacing:0px;line-height:120%;opacity:1&quot;&gt;&lt;b&gt;S&lt;/b&gt;&lt;/font&gt;&lt;font style=&quot;font-size:33.87px;font-family:Segoe UI Semibold;color:#000000;direction:ltr;letter-spacing:0px;line-height:120%;opacity:1&quot;&gt;&lt;b&gt;ubscription &lt;/b&gt;&lt;/font&gt;&lt;font style=&quot;font-size:33.87px;font-family:Segoe UI Semibold;color:#000000;direction:ltr;letter-spacing:0px;line-height:120%;opacity:1&quot;&gt;&lt;b&gt;O&lt;/b&gt;&lt;/font&gt;&lt;font style=&quot;font-size:33.87px;font-family:Segoe UI Semibold;color:#000000;direction:ltr;letter-spacing:0px;line-height:120%;opacity:1&quot;&gt;&lt;b&gt;rgani&lt;/b&gt;&lt;/font&gt;&lt;font style=&quot;font-size:33.87px;font-family:Segoe UI Semibold;color:#000000;direction:ltr;letter-spacing:0px;line-height:120%;opacity:1&quot;&gt;&lt;b&gt;s&lt;/b&gt;&lt;/font&gt;&lt;font style=&quot;font-size:33.87px;font-family:Segoe UI Semibold;color:#000000;direction:ltr;letter-spacing:0px;line-height:120%;opacity:1&quot;&gt;&lt;b&gt;ation&lt;br/&gt;&lt;/b&gt;&lt;/font&gt;&lt;/p&gt;&lt;/div&gt;" tags="Background" id="xVOmkap1mZU-mU1LHdQ8-58">
          <mxCell style="verticalAlign=middle;align=left;overflow=width;vsdxID=1425;fillColor=none;gradientColor=none;shape=stencil(nZBLDoAgDERP0z3SIyjew0SURgSD+Lu9kMZoXLhwN9O+tukAlrNpJg1SzDH4QW/URgNYgZTkjA4UkwJUgGXng+6DX1zLfmoymdXo17xh5zmRJ6Q42BWCfc2oJfdAr+Yv+AP9Cb7OJ3H/2JG1HNGz/84klThPVCc=);strokeColor=none;points=[];labelBackgroundColor=none;rounded=0;html=1;whiteSpace=wrap;" vertex="1" parent="1">
            <mxGeometry x="774" y="212" width="821" height="49" as="geometry" />
          </mxCell>
        </UserObject>
        <UserObject label="" tags="Background" id="xVOmkap1mZU-mU1LHdQ8-59">
          <mxCell style="vsdxID=2000;fillColor=none;gradientColor=none;strokeColor=none;spacingTop=-3;spacingBottom=-3;spacingLeft=-3;spacingRight=-3;points=[];labelBackgroundColor=none;rounded=0;html=1;whiteSpace=wrap;" vertex="1" parent="1">
            <mxGeometry x="675" y="209" width="88" height="72" as="geometry" />
          </mxCell>
        </UserObject>
        <mxCell id="xVOmkap1mZU-mU1LHdQ8-60" style="vsdxID=2001;fillColor=#0078d4;gradientColor=none;shape=stencil(vVTbboMwDP2aPGIFm0vy3LX/EbUBojFAga707xeWoC500pCm7c2XY59jHMPoMDZq0Az5ONn+Vd/MZWoYvTBE0zXamslZjI6MDlVvdW37a3fx/qAW5GK99e9Lh9nXSQ4yW6qQ330k5fzTP3m4smeXswEuQJBH2xWeQSZ9aG0pQYiopcihWDGJms2Y2H5Sk+k7n/eEvFW21okjTKpW1VFqvGk9PIWDxNZ0eh/9tzMhEMYzEQj8aSQCLP5upPPV+i2lQUABWZB0DyEqIQubmzGI4pCvMjEim8m7OQeeBwTt4E0l5BteHnMiyCKmJISUYloeU7qPx8XvHlkJJUULcStK/++NPV3Ng35nwebMnPE40cq0rb/wr/ntSbuQ/x3Q8QM=);strokeColor=none;spacingTop=-3;spacingBottom=-3;spacingLeft=-3;spacingRight=-3;points=[];labelBackgroundColor=none;rounded=0;html=1;whiteSpace=wrap;" vertex="1" parent="xVOmkap1mZU-mU1LHdQ8-59">
          <mxGeometry x="44" y="33" width="44" height="26" as="geometry" />
        </mxCell>
        <mxCell id="xVOmkap1mZU-mU1LHdQ8-61" style="vsdxID=2002;fillColor=#FFFFFF;gradientColor=none;fillOpacity=80;strokeOpacity=80;shape=stencil(vVLLDsIgEPwajiU87Otc9T+IpS0RS7NFrX8vFdRiUr15252ZhR0YxKuxE4NEjIwWzFFeVW07xLeIMdV3EpR1FeI7xKvGgGzBnPva94OYlXN1Mpf5hMnPpQTzfJ5i5OYRSjF/AHuvF3BwJAR9UeIy6CEMZAVOqYeCiEQHhm5KxKTGBIwVVpk+4rSAVibupqTRoo2o8SrlsIDpcjet+shLbISQde2TfC2Ji8266zLDhMWuc44pi1x/ecq/mP/1ka54p6BRWvsQLfnP1DjIJ47v7g==);strokeColor=none;spacingTop=-3;spacingBottom=-3;spacingLeft=-3;spacingRight=-3;points=[];labelBackgroundColor=none;rounded=0;html=1;whiteSpace=wrap;" vertex="1" parent="xVOmkap1mZU-mU1LHdQ8-59">
          <mxGeometry x="59" y="34" width="13" height="17" as="geometry" />
        </mxCell>
        <mxCell id="xVOmkap1mZU-mU1LHdQ8-62" style="vsdxID=2003;fillColor=#0078d4;gradientColor=none;shape=stencil(vVHLDsIgEPwajiQI6RfU+h8bu22JCGRB2/69kG1iazx58DazM/vIjjBtmiCi0CplCjecbZ8nYc5Ca+snJJsLEqYTph0C4Ujh4XvmEaqzont41gkL96naodXKrGF6YSfQtUi0OXXDVlqPfJNP6usotUhYbJIUMmQb/GGrAxpRljVycDBuc1hKM2LclX8/7H9nFfB+82Cd45T2+mcspcSRmu4F);strokeColor=none;spacingTop=-3;spacingBottom=-3;spacingLeft=-3;spacingRight=-3;points=[];labelBackgroundColor=none;rounded=0;html=1;whiteSpace=wrap;" vertex="1" parent="xVOmkap1mZU-mU1LHdQ8-59">
          <mxGeometry x="54" y="11" width="24" height="24" as="geometry" />
        </mxCell>
        <mxCell id="xVOmkap1mZU-mU1LHdQ8-63" style="vsdxID=2004;fillColor=#32d4f5;gradientColor=none;shape=stencil(tVRBcoMwDHwNRzS2hcE+p+k/PIkBTylkDGnI72sq09YNneSSmyWttCskkeFubM3JZoKNkx/e7MUdpzbDl0wI17fWuym8MtxnuKsHbxs/nPsj2SezIJfX+/CxVJgpT3NgcskS7EoeztiX/Upw4w8h5iNcgVKE9iu8gLIg11pSg66SkkoClhGTm9mNuR8mM7mhpzgRss74xuaBMK870ySh8WLt6cYdJXaut4/Rb/ZUgJZpTwq4vNcSQsmf19Lh7GlKPAooQYooILqwArkqEFEUg2qVKRKyGcmUDHhMuuIDvFxDUaa8LOVE4GVKiRyUSGlZShk+nij+H4i+2bDveuSpQGMyjTCfdQefv18MtNpm38bfu7Dw+LnO2nUdHffv+N9rDi76E+D+Ew==);strokeColor=none;spacingTop=-3;spacingBottom=-3;spacingLeft=-3;spacingRight=-3;points=[];labelBackgroundColor=none;rounded=0;html=1;whiteSpace=wrap;" vertex="1" parent="xVOmkap1mZU-mU1LHdQ8-59">
          <mxGeometry y="32" width="65" height="39" as="geometry" />
        </mxCell>
        <mxCell id="xVOmkap1mZU-mU1LHdQ8-64" style="vsdxID=2005;fillColor=#FFFFFF;gradientColor=none;fillOpacity=80;strokeOpacity=80;shape=stencil(xVLLDoMgEPwajhIe2sfZ2v8gFZWUillotX9fLNqKSb32tjuzszAwiOe2EZ1EjFgH5ip7VboG8RNiTLWNBOV8hXiBeF4ZkDWYe1uGvhPj5FjdzGPcMARdRjDZjSpGngGhFKfZGzkHgYCLZ2ESHBk+pEEAk2JPZsW8lUQbp25IxKBsAsYJp0wbcVpALRN/UlJpUUeU7aXsFjBd3k2rdtsMIb/HZ/IzjOPlK+Mppivf/qVo5HvrNf/jf/2ZvvhGoVJahyQt+XV0PBRix4sX);strokeColor=none;spacingTop=-3;spacingBottom=-3;spacingLeft=-3;spacingRight=-3;points=[];labelBackgroundColor=none;rounded=0;html=1;whiteSpace=wrap;" vertex="1" parent="xVOmkap1mZU-mU1LHdQ8-59">
          <mxGeometry x="23" y="33" width="19" height="25" as="geometry" />
        </mxCell>
        <mxCell id="xVOmkap1mZU-mU1LHdQ8-65" style="vsdxID=2006;fillColor=#32d4f5;gradientColor=none;shape=stencil(vVHLDsIgEPwajiQI6RfU+h8bu22JCGRB2/69kG1iazx58DazM/vIjjBtmiCi0CplCjecbZ8nYc5Ca+snJJsLEqYTph0C4Ujh4XvmEaqzont41gkL96naodXKrGF6YSfQtUi0OXXDVlqPfJNP6usotUhYbJIUMmQb/GGrAxpRljVycDBuc1hKM2LclX8/7H9nFfB+82Cd45T2+mcspcSRmu4F);strokeColor=none;spacingTop=-3;spacingBottom=-3;spacingLeft=-3;spacingRight=-3;points=[];labelBackgroundColor=none;rounded=0;html=1;whiteSpace=wrap;" vertex="1" parent="xVOmkap1mZU-mU1LHdQ8-59">
          <mxGeometry x="14" width="36" height="36" as="geometry" />
        </mxCell>
        <UserObject label="" tags="Background" id="xVOmkap1mZU-mU1LHdQ8-66">
          <mxCell style="vsdxID=2007;fillColor=#0078d4;gradientColor=none;fillOpacity=10;strokeOpacity=10;shape=stencil(nZBLDoAgDERP0z3SIyjew0SURgSD+Lu9kMZoXLhwN9O+tukAlrNpJg1SzDH4QW/URgNYgZTkjA4UkwJUgGXng+6DX1zLfmoymdXo17xh5zmRJ6Q42BWCfc2oJfdAr+Yv+AP9Cb7OJ3H/2JG1HNGz/84klThPVCc=);strokeColor=none;spacingTop=-3;spacingBottom=-3;spacingLeft=-3;spacingRight=-3;points=[];labelBackgroundColor=none;rounded=0;html=1;whiteSpace=wrap;" vertex="1" parent="1">
            <mxGeometry x="735" y="262" width="1700" height="660" as="geometry" />
          </mxCell>
        </UserObject>
        <UserObject label="" tags="Background" id="xVOmkap1mZU-mU1LHdQ8-67">
          <mxCell style="vsdxID=2008;fillColor=#f2f2f2;gradientColor=none;fillOpacity=50;shape=stencil(vVPLDsIgEPwajjQVNE3Ptf4HsbQlIjRbtPXvBUHtKx5q0tsuM7A7uwyiWVuzhiMStwb0hXeiMDWiR0SIUDUHYWyEaI5oVmrgFeibKnzeMMd00VXf3Qu9vxe7GyR++CxNXunJMxmcLQRvZrSnngyBHdIZHuBdHB7vMetFi0EbZoRWo8KSQcWxrYRLyaoR1HacN7Pj0JsUaqAiTaNDslh8lZRP5+OxbCBkWpmuFzGfyWbrmH2FP3axNI8tJPzwhQ2+diqFlN6NQ3xqP3vkrUvzJw==);dashed=1;dashPattern=1.00 2.00;strokeColor=#003067;spacingTop=-3;spacingBottom=-3;spacingLeft=-3;spacingRight=-3;points=[];labelBackgroundColor=none;rounded=0;html=1;whiteSpace=wrap;" vertex="1" parent="1">
            <mxGeometry x="756" y="702" width="1658" height="200" as="geometry" />
          </mxCell>
        </UserObject>
        <UserObject label="" tags="Background" id="xVOmkap1mZU-mU1LHdQ8-68">
          <mxCell style="vsdxID=2009;fillColor=none;gradientColor=none;fillOpacity=25;strokeOpacity=25;shape=stencil(vZPRjsIgEEW/hscSCq3SZ9f9D6K0JYulmeKKfy8VogXd3cTEfRvunOnMhQ5im6kXo0SUTBbMlzypve0R+0CUqqGXoKyPENsitmkNyA7McdiH8yhmco4O5nv+ggt1JSFzDSXncG7WuOJX5TPguyMEvswLotBwzNdBcjRKDeZ1pGhW5tiNWfHIsJSJnbUaFoMSXFXJpBktYOdz8EBDxCmuaZwgIj/4Jq4QTk0FGCusMkNCawGdLHyvotWiS1LTScpxIZe/eEla3yZ72Ul+NeS/jPhHrFdPWr/qJP8bF8Dbvfy5CT64b1GrtA5LuMznW+elsLFsewE=);strokeColor=#83b9f9;strokeWidth=7;spacingTop=-3;spacingBottom=-3;spacingLeft=-3;spacingRight=-3;points=[];labelBackgroundColor=none;rounded=0;html=1;whiteSpace=wrap;" vertex="1" parent="1">
            <mxGeometry x="756" y="362" width="1658" height="295" as="geometry" />
          </mxCell>
        </UserObject>
        <UserObject label="" tags="Background" id="xVOmkap1mZU-mU1LHdQ8-69">
          <mxCell style="vsdxID=2010;fillColor=none;gradientColor=none;shape=stencil(vZPRjsIgEEW/hscSCq3SZ9f9D6K0JYulmeKKfy8VogXd3cTEfRvunOnMhQ5im6kXo0SUTBbMlzypve0R+0CUqqGXoKyPENsitmkNyA7McdiH8yhmco4O5nv+ggt1JSFzDSXncG7WuOJX5TPguyMEvswLotBwzNdBcjRKDeZ1pGhW5tiNWfHIsJSJnbUaFoMSXFXJpBktYOdz8EBDxCmuaZwgIj/4Jq4QTk0FGCusMkNCawGdLHyvotWiS1LTScpxIZe/eEla3yZ72Ul+NeS/jPhHrFdPWr/qJP8bF8Dbvfy5CT64b1GrtA5LuMznW+elsLFsewE=);strokeColor=#83b9f9;strokeWidth=2;spacingTop=-3;spacingBottom=-3;spacingLeft=-3;spacingRight=-3;points=[];labelBackgroundColor=none;rounded=0;html=1;whiteSpace=wrap;" vertex="1" parent="1">
            <mxGeometry x="756" y="362" width="1658" height="299" as="geometry" />
          </mxCell>
        </UserObject>
        <UserObject label="" tags="Background" id="xVOmkap1mZU-mU1LHdQ8-70">
          <mxCell style="vsdxID=2011;fillColor=#d8d8d8;gradientColor=none;fillOpacity=50;shape=stencil(vZPRjsIgEEW/hscSCq3SZ9f9D6K0JYulmeKKfy8VogXd3cTEfRvunOnMhQ5im6kXo0SUTBbMlzypve0R+0CUqqGXoKyPENsitmkNyA7McdiH8yhmco4O5nv+ggt1JSFzDSXncG7WuOJX5TPguyMEvswLotBwzNdBcjRKDeZ1pGhW5tiNWfHIsJSJnbUaFoMSXFXJpBktYOdz8EBDxCmuaZwgIj/4Jq4QTk0FGCusMkNCawGdLHyvotWiS1LTScpxIZe/eEla3yZ72Ul+NeS/jPhHrFdPWr/qJP8bF8Dbvfy5CT64b1GrtA5LuMznW+elsLFsewE=);dashed=1;dashPattern=1.00 2.00;strokeColor=#003067;spacingTop=-3;spacingBottom=-3;spacingLeft=-3;spacingRight=-3;points=[];labelBackgroundColor=none;rounded=0;html=1;whiteSpace=wrap;" vertex="1" parent="1">
            <mxGeometry x="756" y="362" width="1658" height="299" as="geometry" />
          </mxCell>
        </UserObject>
        <UserObject label="&lt;div style=&quot;font-size: 1px&quot;&gt;&lt;font style=&quot;font-size:25.4px;font-family:Segoe UI Semibold;color:#000000;direction:ltr;letter-spacing:0px;line-height:120%;opacity:1&quot;&gt;Tenant &lt;/font&gt;&lt;font style=&quot;font-size:25.4px;font-family:Segoe UI Semibold;color:#000000;direction:ltr;letter-spacing:0px;line-height:120%;opacity:1&quot;&gt;R&lt;/font&gt;&lt;font style=&quot;font-size:25.4px;font-family:Segoe UI Semibold;color:#000000;direction:ltr;letter-spacing:0px;line-height:120%;opacity:1&quot;&gt;oot &lt;/font&gt;&lt;font style=&quot;font-size:25.4px;font-family:Segoe UI Semibold;color:#000000;direction:ltr;letter-spacing:0px;line-height:120%;opacity:1&quot;&gt;G&lt;/font&gt;&lt;font style=&quot;font-size:25.4px;font-family:Segoe UI Semibold;color:#000000;direction:ltr;letter-spacing:0px;line-height:120%;opacity:1&quot;&gt;roup&lt;br/&gt;&lt;/font&gt;&lt;/div&gt;" tags="Background" id="xVOmkap1mZU-mU1LHdQ8-71">
          <mxCell style="verticalAlign=middle;align=center;overflow=width;vsdxID=2013;fillColor=#FFFFFF;gradientColor=none;shape=stencil(nZBLDoAgDERP0z3SIyjew0SURgSD+Lu9kMZoXLhwN9O+tukAlrNpJg1SzDH4QW/URgNYgZTkjA4UkwJUgGXng+6DX1zLfmoymdXo17xh5zmRJ6Q42BWCfc2oJfdAr+Yv+AP9Cb7OJ3H/2JG1HNGz/84klThPVCc=);strokeColor=#000000;spacingTop=-3;spacingBottom=-3;spacingLeft=-3;spacingRight=-3;points=[];labelBackgroundColor=none;rounded=0;html=1;whiteSpace=wrap;" vertex="1" parent="1">
            <mxGeometry x="1935" y="282" width="200" height="60" as="geometry" />
          </mxCell>
        </UserObject>
        <UserObject label="" tags="Background" id="xVOmkap1mZU-mU1LHdQ8-72">
          <mxCell style="vsdxID=2014;fillColor=none;gradientColor=none;shape=stencil(UzV2Ls5ILEhVNTIoLinKz04tz0wpyVA1dlE1MsrMy0gtyiwBslSNXVWNndPyi1LTi/JL81Ig/IJEkEoQKze/DGRCBUSfAUiHkUElhGdoAOG7QZTmZObhVIpHIcwUMpSa65kYIasGMhAuT8vMyYF4HFke3adAIUgoGbsCAA==);strokeColor=#2f2f2f;strokeWidth=3;spacingTop=-3;spacingBottom=-3;spacingLeft=-3;spacingRight=-3;points=[];labelBackgroundColor=none;rounded=0;html=1;whiteSpace=wrap;" vertex="1" parent="1">
            <mxGeometry x="1095" y="463" width="1200" height="283" as="geometry" />
          </mxCell>
        </UserObject>
        <UserObject label="" tags="Background" id="xVOmkap1mZU-mU1LHdQ8-73">
          <mxCell style="vsdxID=2015;fillColor=none;gradientColor=none;shape=stencil(UzV2Ls5ILEhVNTIoLinKz04tz0wpyVA1dlE1MsrMy0gtyiwBslSNXVWNndPyi1LTi/JL81Ig/IJEkEoQKze/DGRCBUSfAUiHkUElhGdspmdqCRZxgyjOyczDqdgAt0JDA7KVwvhQxUAGwulpmTk5EJ8jy6N7FSgECSZjVwA=);strokeColor=#2f2f2f;strokeWidth=3;spacingTop=-3;spacingBottom=-3;spacingLeft=-3;spacingRight=-3;points=[];labelBackgroundColor=none;rounded=0;html=1;whiteSpace=wrap;" vertex="1" parent="1">
            <mxGeometry x="1535" y="562" width="280" height="60" as="geometry" />
          </mxCell>
        </UserObject>
        <UserObject label="" tags="Background" id="xVOmkap1mZU-mU1LHdQ8-74">
          <mxCell style="vsdxID=2016;fillColor=none;gradientColor=none;shape=stencil(nZBLCoAwDERPk31tjuDnHoLVBmsrtf5ub0sQRdCFu5nkJUwCmE+6HhVIMQXverVSEzRgAVKS1cpTiAqwBMxb51Xn3Wwb9mOdyKQGt6QNG8+JNCHFzi4T7CtGDdlX9AM8t/xAHwGiuIK3ZAzffe8/D40lfhKWBw==);strokeColor=#2f2f2f;strokeWidth=3;spacingTop=-3;spacingBottom=-3;spacingLeft=-3;spacingRight=-3;points=[];labelBackgroundColor=none;rounded=0;html=1;whiteSpace=wrap;" vertex="1" parent="1">
            <mxGeometry x="885" y="562" width="430" height="207" as="geometry" />
          </mxCell>
        </UserObject>
        <UserObject label="" tags="Background" id="xVOmkap1mZU-mU1LHdQ8-75">
          <mxCell style="vsdxID=2018;fillColor=none;gradientColor=none;shape=stencil(fY9LDoAgDERP0z3SIyjew0SURgSD+Lu9kMZoTHQ303nTtIDlbJpJgxRzDH7QG7XRAFYgJTmjA8WkABVg2fmg++AX17KfmkxmNfo1b9i5J3JDiuPpagYtuU+wED/oFX7ASdzXdGQtP/PM39enEX+O6gQ=);strokeColor=#2f2f2f;strokeWidth=3;spacingTop=-3;spacingBottom=-3;spacingLeft=-3;spacingRight=-3;points=[];labelBackgroundColor=none;rounded=0;html=1;whiteSpace=wrap;" vertex="1" parent="1">
            <mxGeometry x="2295" y="542" width="26" height="247" as="geometry" />
          </mxCell>
        </UserObject>
        <UserObject label="&lt;div style=&quot;font-size: 1px&quot;&gt;&lt;font style=&quot;font-size:25.4px;font-family:Segoe UI Semibold;color:#000000;direction:ltr;letter-spacing:0px;line-height:120%;opacity:1&quot;&gt;Online&lt;br/&gt;&lt;/font&gt;&lt;/div&gt;" tags="Background" id="xVOmkap1mZU-mU1LHdQ8-76">
          <mxCell style="verticalAlign=middle;align=center;overflow=width;vsdxID=2019;fillColor=#FFFFFF;gradientColor=none;shape=stencil(nZBLDoAgDERP0z3SIyjew0SURgSD+Lu9kMZoXLhwN9O+tukAlrNpJg1SzDH4QW/URgNYgZTkjA4UkwJUgGXng+6DX1zLfmoymdXo17xh5zmRJ6Q42BWCfc2oJfdAr+Yv+AP9Cb7OJ3H/2JG1HNGz/84klThPVCc=);strokeColor=#000000;spacingTop=-3;spacingBottom=-3;spacingLeft=-3;spacingRight=-3;points=[];labelBackgroundColor=none;rounded=0;html=1;whiteSpace=wrap;" vertex="1" parent="1">
            <mxGeometry x="1735" y="582" width="160" height="60" as="geometry" />
          </mxCell>
        </UserObject>
        <UserObject label="&lt;div style=&quot;font-size: 1px&quot;&gt;&lt;font style=&quot;font-size:25.4px;font-family:Segoe UI Semibold;color:#000000;direction:ltr;letter-spacing:0px;line-height:120%;opacity:1&quot;&gt;Sandbox&lt;br/&gt;&lt;/font&gt;&lt;/div&gt;" tags="Background" id="xVOmkap1mZU-mU1LHdQ8-79">
          <mxCell style="verticalAlign=middle;align=center;overflow=width;vsdxID=2022;fillColor=#FFFFFF;gradientColor=none;shape=stencil(nZBLDoAgDERP0z3SIyjew0SURgSD+Lu9kMZoXLhwN9O+tukAlrNpJg1SzDH4QW/URgNYgZTkjA4UkwJUgGXng+6DX1zLfmoymdXo17xh5zmRJ6Q42BWCfc2oJfdAr+Yv+AP9Cb7OJ3H/2JG1HNGz/84klThPVCc=);strokeColor=#000000;spacingTop=-3;spacingBottom=-3;spacingLeft=-3;spacingRight=-3;points=[];labelBackgroundColor=none;rounded=0;html=1;whiteSpace=wrap;" vertex="1" parent="1">
            <mxGeometry x="2215" y="481" width="160" height="60" as="geometry" />
          </mxCell>
        </UserObject>
        <UserObject label="&lt;div style=&quot;font-size: 1px&quot;&gt;&lt;font style=&quot;font-size:25.4px;font-family:Segoe UI Semibold;color:#000000;direction:ltr;letter-spacing:0px;line-height:120%;opacity:1&quot;&gt;P&lt;/font&gt;&lt;font style=&quot;font-size:25.4px;font-family:Segoe UI Semibold;color:#000000;direction:ltr;letter-spacing:0px;line-height:120%;opacity:1&quot;&gt;latform&lt;br/&gt;&lt;/font&gt;&lt;/div&gt;" tags="Background" id="xVOmkap1mZU-mU1LHdQ8-81">
          <mxCell style="verticalAlign=middle;align=center;overflow=width;vsdxID=2024;fillColor=#FFFFFF;gradientColor=none;shape=stencil(nZBLDoAgDERP0z3SIyjew0SURgSD+Lu9kMZoXLhwN9O+tukAlrNpJg1SzDH4QW/URgNYgZTkjA4UkwJUgGXng+6DX1zLfmoymdXo17xh5zmRJ6Q42BWCfc2oJfdAr+Yv+AP9Cb7OJ3H/2JG1HNGz/84klThPVCc=);strokeColor=#000000;spacingTop=-3;spacingBottom=-3;spacingLeft=-3;spacingRight=-3;points=[];labelBackgroundColor=none;rounded=0;html=1;whiteSpace=wrap;" vertex="1" parent="1">
            <mxGeometry x="995" y="482" width="200" height="60" as="geometry" />
          </mxCell>
        </UserObject>
        <UserObject label="&lt;div style=&quot;font-size: 1px&quot;&gt;&lt;font style=&quot;font-size:25.4px;font-family:Segoe UI Semibold;color:#000000;direction:ltr;letter-spacing:0px;line-height:120%;opacity:1&quot;&gt;I&lt;/font&gt;&lt;font style=&quot;font-size:25.4px;font-family:Segoe UI Semibold;color:#000000;direction:ltr;letter-spacing:0px;line-height:120%;opacity:1&quot;&gt;dentity&lt;br/&gt;&lt;/font&gt;&lt;/div&gt;" tags="Background" id="xVOmkap1mZU-mU1LHdQ8-82">
          <mxCell style="verticalAlign=middle;align=center;overflow=width;vsdxID=2025;fillColor=#FFFFFF;gradientColor=none;shape=stencil(nZBLDoAgDERP0z3SIyjew0SURgSD+Lu9kMZoXLhwN9O+tukAlrNpJg1SzDH4QW/URgNYgZTkjA4UkwJUgGXng+6DX1zLfmoymdXo17xh5zmRJ6Q42BWCfc2oJfdAr+Yv+AP9Cb7OJ3H/2JG1HNGz/84klThPVCc=);strokeColor=#000000;spacingTop=-3;spacingBottom=-3;spacingLeft=-3;spacingRight=-3;points=[];labelBackgroundColor=none;rounded=0;html=1;whiteSpace=wrap;" vertex="1" parent="1">
            <mxGeometry x="795" y="582" width="180" height="60" as="geometry" />
          </mxCell>
        </UserObject>
        <UserObject label="&lt;div style=&quot;font-size: 1px&quot;&gt;&lt;font style=&quot;font-size:25.4px;font-family:Segoe UI Semibold;color:#000000;direction:ltr;letter-spacing:0px;line-height:120%;opacity:1&quot;&gt;M&lt;/font&gt;&lt;font style=&quot;font-size:25.4px;font-family:Segoe UI Semibold;color:#000000;direction:ltr;letter-spacing:0px;line-height:120%;opacity:1&quot;&gt;anagement&lt;br/&gt;&lt;/font&gt;&lt;/div&gt;" tags="Background" id="xVOmkap1mZU-mU1LHdQ8-83">
          <mxCell style="verticalAlign=middle;align=center;overflow=width;vsdxID=2026;fillColor=#FFFFFF;gradientColor=none;shape=stencil(nZBLDoAgDERP0z3SIyjew0SURgSD+Lu9kMZoXLhwN9O+tukAlrNpJg1SzDH4QW/URgNYgZTkjA4UkwJUgGXng+6DX1zLfmoymdXo17xh5zmRJ6Q42BWCfc2oJfdAr+Yv+AP9Cb7OJ3H/2JG1HNGz/84klThPVCc=);strokeColor=#000000;spacingTop=-3;spacingBottom=-3;spacingLeft=-3;spacingRight=-3;points=[];labelBackgroundColor=none;rounded=0;html=1;whiteSpace=wrap;" vertex="1" parent="1">
            <mxGeometry x="995" y="582" width="200" height="60" as="geometry" />
          </mxCell>
        </UserObject>
        <UserObject label="&lt;div style=&quot;font-size: 1px&quot;&gt;&lt;font style=&quot;font-size:25.4px;font-family:Segoe UI Semibold;color:#000000;direction:ltr;letter-spacing:0px;line-height:120%;opacity:1&quot;&gt;C&lt;/font&gt;&lt;font style=&quot;font-size:25.4px;font-family:Segoe UI Semibold;color:#000000;direction:ltr;letter-spacing:0px;line-height:120%;opacity:1&quot;&gt;onnectivity&lt;br/&gt;&lt;/font&gt;&lt;/div&gt;" tags="Background" id="xVOmkap1mZU-mU1LHdQ8-84">
          <mxCell style="verticalAlign=middle;align=center;overflow=width;vsdxID=2027;fillColor=#FFFFFF;gradientColor=none;shape=stencil(nZBLDoAgDERP0z3SIyjew0SURgSD+Lu9kMZoXLhwN9O+tukAlrNpJg1SzDH4QW/URgNYgZTkjA4UkwJUgGXng+6DX1zLfmoymdXo17xh5zmRJ6Q42BWCfc2oJfdAr+Yv+AP9Cb7OJ3H/2JG1HNGz/84klThPVCc=);strokeColor=#000000;spacingTop=-3;spacingBottom=-3;spacingLeft=-3;spacingRight=-3;points=[];labelBackgroundColor=none;rounded=0;html=1;whiteSpace=wrap;" vertex="1" parent="1">
            <mxGeometry x="1215" y="582" width="200" height="60" as="geometry" />
          </mxCell>
        </UserObject>
        <UserObject label="&lt;div style=&quot;font-size: 1px&quot;&gt;&lt;font style=&quot;font-size:22.58px;font-family:Segoe UI Semibold;color:#000000;direction:ltr;letter-spacing:0px;line-height:120%;opacity:1&quot;&gt;Identity&lt;br/&gt;&lt;/font&gt;&lt;font style=&quot;font-size:22.58px;font-family:Segoe UI Semibold;color:#000000;direction:ltr;letter-spacing:0px;line-height:120%;opacity:1&quot;&gt;S&lt;/font&gt;&lt;font style=&quot;font-size:22.58px;font-family:Segoe UI Semibold;color:#000000;direction:ltr;letter-spacing:0px;line-height:120%;opacity:1&quot;&gt;ubscription&lt;br/&gt;&lt;/font&gt;&lt;/div&gt;" tags="Background" id="xVOmkap1mZU-mU1LHdQ8-85">
          <mxCell style="verticalAlign=middle;align=center;overflow=width;vsdxID=2028;fillColor=#fff2cc;gradientColor=none;shape=stencil(nZBLDoAgDERP0z3SIyjew0SURgSD+Lu9kMZoXLhwN9O+tukAlrNpJg1SzDH4QW/URgNYgZTkjA4UkwJUgGXng+6DX1zLfmoymdXo17xh5zmRJ6Q42BWCfc2oJfdAr+Yv+AP9Cb7OJ3H/2JG1HNGz/84klThPVCc=);strokeColor=#bf9000;spacingTop=-3;spacingBottom=-3;spacingLeft=-3;spacingRight=-3;points=[];labelBackgroundColor=none;rounded=0;html=1;whiteSpace=wrap;" vertex="1" parent="1">
            <mxGeometry x="795" y="742" width="180" height="60" as="geometry" />
          </mxCell>
        </UserObject>
        <UserObject label="&lt;div style=&quot;font-size: 1px&quot;&gt;&lt;font style=&quot;font-size:22.58px;font-family:Segoe UI Semibold;color:#000000;direction:ltr;letter-spacing:0px;line-height:120%;opacity:1&quot;&gt;Management&lt;br/&gt;&lt;/font&gt;&lt;font style=&quot;font-size:22.58px;font-family:Segoe UI Semibold;color:#000000;direction:ltr;letter-spacing:0px;line-height:120%;opacity:1&quot;&gt;S&lt;/font&gt;&lt;font style=&quot;font-size:22.58px;font-family:Segoe UI Semibold;color:#000000;direction:ltr;letter-spacing:0px;line-height:120%;opacity:1&quot;&gt;ubscription&lt;br/&gt;&lt;/font&gt;&lt;/div&gt;" tags="Background" id="xVOmkap1mZU-mU1LHdQ8-86">
          <mxCell style="verticalAlign=middle;align=center;overflow=width;vsdxID=2029;fillColor=#fff2cc;gradientColor=none;shape=stencil(nZBLDoAgDERP0z3SIyjew0SURgSD+Lu9kMZoXLhwN9O+tukAlrNpJg1SzDH4QW/URgNYgZTkjA4UkwJUgGXng+6DX1zLfmoymdXo17xh5zmRJ6Q42BWCfc2oJfdAr+Yv+AP9Cb7OJ3H/2JG1HNGz/84klThPVCc=);strokeColor=#bf9000;spacingTop=-3;spacingBottom=-3;spacingLeft=-3;spacingRight=-3;points=[];labelBackgroundColor=none;rounded=0;html=1;whiteSpace=wrap;" vertex="1" parent="1">
            <mxGeometry x="995" y="742" width="200" height="60" as="geometry" />
          </mxCell>
        </UserObject>
        <UserObject label="&lt;div style=&quot;font-size: 1px&quot;&gt;&lt;font style=&quot;font-size:22.58px;font-family:Segoe UI Semibold;color:#000000;direction:ltr;letter-spacing:0px;line-height:120%;opacity:1&quot;&gt;Connectivity&lt;br/&gt;&lt;/font&gt;&lt;font style=&quot;font-size:22.58px;font-family:Segoe UI Semibold;color:#000000;direction:ltr;letter-spacing:0px;line-height:120%;opacity:1&quot;&gt;S&lt;/font&gt;&lt;font style=&quot;font-size:22.58px;font-family:Segoe UI Semibold;color:#000000;direction:ltr;letter-spacing:0px;line-height:120%;opacity:1&quot;&gt;ubscription&lt;br/&gt;&lt;/font&gt;&lt;/div&gt;" tags="Background" id="xVOmkap1mZU-mU1LHdQ8-87">
          <mxCell style="verticalAlign=middle;align=center;overflow=width;vsdxID=2030;fillColor=#fff2cc;gradientColor=none;shape=stencil(nZBLDoAgDERP0z3SIyjew0SURgSD+Lu9kMZoXLhwN9O+tukAlrNpJg1SzDH4QW/URgNYgZTkjA4UkwJUgGXng+6DX1zLfmoymdXo17xh5zmRJ6Q42BWCfc2oJfdAr+Yv+AP9Cb7OJ3H/2JG1HNGz/84klThPVCc=);strokeColor=#bf9000;spacingTop=-3;spacingBottom=-3;spacingLeft=-3;spacingRight=-3;points=[];labelBackgroundColor=none;rounded=0;html=1;whiteSpace=wrap;" vertex="1" parent="1">
            <mxGeometry x="1215" y="742" width="200" height="60" as="geometry" />
          </mxCell>
        </UserObject>
        <UserObject label="&lt;div style=&quot;font-size: 1px&quot;&gt;&lt;/div&gt;" tags="Background" id="xVOmkap1mZU-mU1LHdQ8-88">
          <mxCell style="verticalAlign=middle;align=center;overflow=width;vsdxID=2031;fillColor=#fff2cc;gradientColor=none;shape=stencil(nZBLDoAgDERP0z3SIyjew0SURgSD+Lu9kMZoXLhwN9O+tukAlrNpJg1SzDH4QW/URgNYgZTkjA4UkwJUgGXng+6DX1zLfmoymdXo17xh5zmRJ6Q42BWCfc2oJfdAr+Yv+AP9Cb7OJ3H/2JG1HNGz/84klThPVCc=);strokeColor=#bf9000;spacingTop=-3;spacingBottom=-3;spacingLeft=-3;spacingRight=-3;points=[];labelBackgroundColor=none;rounded=0;html=1;whiteSpace=wrap;" vertex="1" parent="1">
            <mxGeometry x="1935" y="742" width="200" height="60" as="geometry" />
          </mxCell>
        </UserObject>
        <UserObject label="&lt;div style=&quot;font-size: 1px&quot;&gt;&lt;/div&gt;" tags="Background" id="xVOmkap1mZU-mU1LHdQ8-89">
          <mxCell style="verticalAlign=middle;align=center;overflow=width;vsdxID=2032;fillColor=#fff2cc;gradientColor=none;shape=stencil(nZBLDoAgDERP0z3SIyjew0SURgSD+Lu9kMZoXLhwN9O+tukAlrNpJg1SzDH4QW/URgNYgZTkjA4UkwJUgGXng+6DX1zLfmoymdXo17xh5zmRJ6Q42BWCfc2oJfdAr+Yv+AP9Cb7OJ3H/2JG1HNGz/84klThPVCc=);strokeColor=#bf9000;spacingTop=-3;spacingBottom=-3;spacingLeft=-3;spacingRight=-3;points=[];labelBackgroundColor=none;rounded=0;html=1;whiteSpace=wrap;" vertex="1" parent="1">
            <mxGeometry x="2216" y="742" width="158" height="60" as="geometry" />
          </mxCell>
        </UserObject>
        <UserObject label="&lt;div style=&quot;font-size: 1px&quot;&gt;&lt;p style=&quot;text-align:left;margin-left:0;margin-right:0;margin-top:0px;margin-bottom:0px;text-indent:0;vertical-align:middle;direction:ltr;&quot;&gt;&lt;font style=&quot;font-size:33.87px;font-family:Segoe UI Semibold;color:#000000;direction:ltr;letter-spacing:0px;line-height:120%;opacity:1&quot;&gt;&lt;b&gt;Management &lt;/b&gt;&lt;/font&gt;&lt;font style=&quot;font-size:33.87px;font-family:Segoe UI Semibold;color:#000000;direction:ltr;letter-spacing:0px;line-height:120%;opacity:1&quot;&gt;&lt;b&gt;G&lt;/b&gt;&lt;/font&gt;&lt;font style=&quot;font-size:33.87px;font-family:Segoe UI Semibold;color:#000000;direction:ltr;letter-spacing:0px;line-height:120%;opacity:1&quot;&gt;&lt;b&gt;roup&lt;/b&gt;&lt;/font&gt;&lt;font style=&quot;font-size:33.87px;font-family:Segoe UI Semibold;color:#000000;direction:ltr;letter-spacing:0px;line-height:120%;opacity:1&quot;&gt;&lt;b&gt;s&lt;br/&gt;&lt;/b&gt;&lt;/font&gt;&lt;/p&gt;&lt;/div&gt;" tags="Background" id="xVOmkap1mZU-mU1LHdQ8-90">
          <mxCell style="verticalAlign=middle;align=left;overflow=width;vsdxID=2034;fillColor=none;gradientColor=none;shape=stencil(nZBLDoAgDERP0z3SIyjew0SURgSD+Lu9kMZoXLhwN9O+tukAlrNpJg1SzDH4QW/URgNYgZTkjA4UkwJUgGXng+6DX1zLfmoymdXo17xh5zmRJ6Q42BWCfc2oJfdAr+Yv+AP9Cb7OJ3H/2JG1HNGz/84klThPVCc=);strokeColor=none;points=[];labelBackgroundColor=none;rounded=0;html=1;whiteSpace=wrap;" vertex="1" parent="1">
            <mxGeometry x="823" y="312" width="702" height="49" as="geometry" />
          </mxCell>
        </UserObject>
        <UserObject label="&lt;div style=&quot;font-size: 1px&quot;&gt;&lt;p style=&quot;text-align:left;margin-left:0;margin-right:0;margin-top:0px;margin-bottom:0px;text-indent:0;vertical-align:middle;direction:ltr;&quot;&gt;&lt;font style=&quot;font-size:33.87px;font-family:Segoe UI Semibold;color:#000000;direction:ltr;letter-spacing:0px;line-height:120%;opacity:1&quot;&gt;&lt;b&gt;Subscriptions&lt;br/&gt;&lt;/b&gt;&lt;/font&gt;&lt;/p&gt;&lt;/div&gt;" tags="Background" id="xVOmkap1mZU-mU1LHdQ8-91">
          <mxCell style="verticalAlign=middle;align=left;overflow=width;vsdxID=2035;fillColor=none;gradientColor=none;shape=stencil(nZBLDoAgDERP0z3SIyjew0SURgSD+Lu9kMZoXLhwN9O+tukAlrNpJg1SzDH4QW/URgNYgZTkjA4UkwJUgGXng+6DX1zLfmoymdXo17xh5zmRJ6Q42BWCfc2oJfdAr+Yv+AP9Cb7OJ3H/2JG1HNGz/84klThPVCc=);strokeColor=none;points=[];labelBackgroundColor=none;rounded=0;html=1;whiteSpace=wrap;" vertex="1" parent="1">
            <mxGeometry x="815" y="817" width="257" height="49" as="geometry" />
          </mxCell>
        </UserObject>
        <UserObject label="" tags="Background" id="xVOmkap1mZU-mU1LHdQ8-92">
          <mxCell style="vsdxID=2036;fillColor=none;gradientColor=none;points=[];labelBackgroundColor=none;rounded=0;strokeColor=none;html=1;whiteSpace=wrap;" vertex="1" parent="1">
            <mxGeometry x="756" y="702" width="1658" height="200" as="geometry" />
          </mxCell>
        </UserObject>
        <mxCell id="xVOmkap1mZU-mU1LHdQ8-93" style="vsdxID=2037;fillColor=none;gradientColor=none;fillOpacity=25;strokeOpacity=25;shape=stencil(vVPLDsIgEPwajjQVNE3Ptf4HsbQlIjRbtPXvBUHtKx5q0tsuM7A7uwyiWVuzhiMStwb0hXeiMDWiR0SIUDUHYWyEaI5oVmrgFeibKnzeMMd00VXf3Qu9vxe7GyR++CxNXunJMxmcLQRvZrSnngyBHdIZHuBdHB7vMetFi0EbZoRWo8KSQcWxrYRLyaoR1HacN7Pj0JsUaqAiTaNDslh8lZRP5+OxbCBkWpmuFzGfyWbrmH2FP3axNI8tJPzwhQ2+diqFlN6NQ3xqP3vkrUvzJw==);strokeColor=#83b9f9;strokeWidth=7;spacingTop=-3;spacingBottom=-3;spacingLeft=-3;spacingRight=-3;points=[];labelBackgroundColor=none;rounded=0;html=1;whiteSpace=wrap;" vertex="1" parent="xVOmkap1mZU-mU1LHdQ8-92">
          <mxGeometry width="1658" height="200" as="geometry" />
        </mxCell>
        <mxCell id="xVOmkap1mZU-mU1LHdQ8-94" style="vsdxID=2038;fillColor=none;gradientColor=none;shape=stencil(vVPLDsIgEPwajjQVNE3Ptf4HsbQlIjRbtPXvBUHtKx5q0tsuM7A7uwyiWVuzhiMStwb0hXeiMDWiR0SIUDUHYWyEaI5oVmrgFeibKnzeMMd00VXf3Qu9vxe7GyR++CxNXunJMxmcLQRvZrSnngyBHdIZHuBdHB7vMetFi0EbZoRWo8KSQcWxrYRLyaoR1HacN7Pj0JsUaqAiTaNDslh8lZRP5+OxbCBkWpmuFzGfyWbrmH2FP3axNI8tJPzwhQ2+diqFlN6NQ3xqP3vkrUvzJw==);strokeColor=#83b9f9;strokeWidth=2;spacingTop=-3;spacingBottom=-3;spacingLeft=-3;spacingRight=-3;points=[];labelBackgroundColor=none;rounded=0;html=1;whiteSpace=wrap;" vertex="1" parent="xVOmkap1mZU-mU1LHdQ8-92">
          <mxGeometry width="1658" height="200" as="geometry" />
        </mxCell>
        <UserObject label="" tags="Background" id="xVOmkap1mZU-mU1LHdQ8-95">
          <mxCell style="vsdxID=2039;fillColor=none;gradientColor=none;strokeColor=none;spacingTop=-3;spacingBottom=-3;spacingLeft=-3;spacingRight=-3;points=[];labelBackgroundColor=none;rounded=0;html=1;whiteSpace=wrap;" vertex="1" parent="1">
            <mxGeometry x="766" y="816" width="46" height="74" as="geometry" />
          </mxCell>
        </UserObject>
        <mxCell id="xVOmkap1mZU-mU1LHdQ8-96" style="vsdxID=2040;fillColor=#ffd70f;gradientColor=none;shape=stencil(xVfZcqswDP0aHqPxvjy3vf/BtCRhSkPG4Xb5+zp1gAobN8yk9M3IWtDRkWwX/O60L49Vwcipc+1z9VY/dfuC3xeM1Yd95erOrwr+UPC7beuqnWv/H57C97E8a55XL+3r2cN7sLMC1NmIkY8g4BaE/JL8C/qle/S77qJPDQgaDNzFglIQNojmnDIOtFfZlO/1aeParuzq9hD2SdhrSrerNj7gZtuUO7R1equqYyS+/GJTH3IpjdGT+oqBFRgD4DwLAVcxBBJBwDUQmXa6AgSZ6El9CVxEkKksBCpmQS+aczpSaw0IGBCDwksFNFNWGVXVYzYpKgfFsU/fDjfNiGYyiqIbC0TPZxSlowVORwIukKVgbptOpkBCg8DpWNsDnkyHg5U4IwZCY8ox0GbG5wop5cKnR48AMSnBQNvbGGgKDP+S0aAzpGHAJ409lGnepQS92mzLhU9jpoYjqzdgfSfNQKDYFAOFWyfhkwzz4/dHQS78laBpDSwz4VM0wBAkXEpg7O9oMIZPYybB4nnjXRiTg0BMj3mQuBVin8qCMqvRIBP+StA8ky6n9BwNRMQDVeR54IcUpzfFYBEPxvBXjlBpwepFBqafidddQKM7Nb6DSwKTZgaaqQkloHFNFCh8Dgo7HORTl4tLQhfT8sd8Fqr7xfh82dZNE14/3/enzx0vCk8l/vAJ);strokeColor=none;spacingTop=-3;spacingBottom=-3;spacingLeft=-3;spacingRight=-3;points=[];labelBackgroundColor=none;rounded=0;html=1;whiteSpace=wrap;" vertex="1" parent="xVOmkap1mZU-mU1LHdQ8-95">
          <mxGeometry width="46" height="74" as="geometry" />
        </mxCell>
        <mxCell id="xVOmkap1mZU-mU1LHdQ8-97" style="vsdxID=2041;fillColor=#ff9300;gradientColor=none;fillOpacity=75;strokeOpacity=75;shape=stencil(vVTBcoQgDP0ajmYQBOS83f4H00VlamUHbXf798VCbcGt0x7WW0hekvdiDKKHsVNnjQgeJ2ef9cWcpg7RB0SIGTrtzOQtRI+IHhrrdOvs63AK77OakbP1Yt/mCteQRyjU5ZxF8HvwSAkV/fQ8hoTeDP9LUO7JR11MYCWQgHcxgQGJngiRBGqe1hQgaMQU6mrGwtlJTcYOIY5DrFeu1YXvVzS9apPQeNH6vHLfZMg5CJlS5IvIiCkxTgkyKOv7EUxnnjf3veXGwAnQOp84rRI5QiyYCMFQk730bHS/qagSwLMdqpaN+dohYCQpSaDk9xOUEWSAWU4w5ffLF9xh2qvFrTZGzWqgq99VskTK1gnYQc8fLpA3vg9eY/o+3Muf8fxAelc4rvT4AQ==);strokeColor=none;spacingTop=-3;spacingBottom=-3;spacingLeft=-3;spacingRight=-3;points=[];labelBackgroundColor=none;rounded=0;html=1;whiteSpace=wrap;" vertex="1" parent="xVOmkap1mZU-mU1LHdQ8-95">
          <mxGeometry x="18" y="46" width="2" height="20" as="geometry" />
        </mxCell>
        <mxCell id="xVOmkap1mZU-mU1LHdQ8-98" style="vsdxID=2042;fillColor=#ff9300;gradientColor=none;fillOpacity=75;strokeOpacity=75;shape=stencil(vVPLDoMgEPwajhoUNfFs2/8gFZWUgllptX9fLKQ+aNPEJt6W3VlmZ2EQKbqGtgzFuNOgLqznpW4QOaA45rJhwLWJEDkiUlQKWA3qJkt7bumIHKOruo83DLYPjx0xfthTSsI8emVOFkzhbKrgwGmYJBYPriHJQpzblIdxkAg7jiGgA+8CUJpqruSCX1CoWWDYgkrQelHqesZaL+3mE1zOxORJmGYfyTfLeU/vbWgHPWvyabzNevwV7fY63s/482m+7WYHKT9cY4LJbxUXwtp1Xl/706Sst8nxCQ==);strokeColor=none;spacingTop=-3;spacingBottom=-3;spacingLeft=-3;spacingRight=-3;points=[];labelBackgroundColor=none;rounded=0;html=1;whiteSpace=wrap;" vertex="1" parent="xVOmkap1mZU-mU1LHdQ8-95">
          <mxGeometry x="11" y="22" width="24" height="2" as="geometry" />
        </mxCell>
        <mxCell id="xVOmkap1mZU-mU1LHdQ8-99" style="vsdxID=2043;fillColor=#ff9300;gradientColor=none;fillOpacity=75;strokeOpacity=75;shape=stencil(vVPLDoMgEPwajhoUNfFs2/8gFZWUgllptX9fLKQ+aNPEJt6W3VlmZ2EQKbqGtgzFuNOgLqznpW4QOaA45rJhwLWJEDkiUlQKWA3qJkt7bumIHKOruo83DLYPjx0xfthTSsI8emVOFkzhbKrgwGmYJBYPriHJQpzblIdxkAg7jiGgA+8CUJpqruSCX1CoWWDYgkrQelHqesZaL+3mE1zOxORJmGYfyTfLeU/vbWgHPWvyabzNevwV7fY63s/482m+7WYHKT9cY4LJbxUXwtp1Xl/706Sst8nxCQ==);strokeColor=none;spacingTop=-3;spacingBottom=-3;spacingLeft=-3;spacingRight=-3;points=[];labelBackgroundColor=none;rounded=0;html=1;whiteSpace=wrap;" vertex="1" parent="xVOmkap1mZU-mU1LHdQ8-95">
          <mxGeometry x="11" y="26" width="24" height="2" as="geometry" />
        </mxCell>
        <UserObject label="&lt;div style=&quot;font-size: 1px&quot;&gt;&lt;font style=&quot;font-size:25.4px;font-family:Segoe UI Semibold;color:#000000;direction:ltr;letter-spacing:0px;line-height:120%;opacity:1&quot;&gt;Corp&lt;br/&gt;&lt;/font&gt;&lt;/div&gt;" tags="Background" id="xVOmkap1mZU-mU1LHdQ8-100">
          <mxCell style="verticalAlign=middle;align=center;overflow=width;vsdxID=2044;fillColor=#FFFFFF;gradientColor=none;shape=stencil(nZBLDoAgDERP0z3SIyjew0SURgSD+Lu9kMZoXLhwN9O+tukAlrNpJg1SzDH4QW/URgNYgZTkjA4UkwJUgGXng+6DX1zLfmoymdXo17xh5zmRJ6Q42BWCfc2oJfdAr+Yv+AP9Cb7OJ3H/2JG1HNGz/84klThPVCc=);strokeColor=#000000;spacingTop=-3;spacingBottom=-3;spacingLeft=-3;spacingRight=-3;points=[];labelBackgroundColor=none;rounded=0;html=1;whiteSpace=wrap;" vertex="1" parent="1">
            <mxGeometry x="1455" y="582" width="160" height="60" as="geometry" />
          </mxCell>
        </UserObject>
        <UserObject label="&lt;div style=&quot;font-size: 1px&quot;&gt;&lt;/div&gt;" tags="Background" id="xVOmkap1mZU-mU1LHdQ8-101">
          <mxCell style="verticalAlign=middle;align=center;overflow=width;vsdxID=2045;fillColor=#fff2cc;gradientColor=none;shape=stencil(nZBLDoAgDERP0z3SIyjew0SURgSD+Lu9kMZoXLhwN9O+tukAlrNpJg1SzDH4QW/URgNYgZTkjA4UkwJUgGXng+6DX1zLfmoymdXo17xh5zmRJ6Q42BWCfc2oJfdAr+Yv+AP9Cb7OJ3H/2JG1HNGz/84klThPVCc=);strokeColor=#bf9000;spacingTop=-3;spacingBottom=-3;spacingLeft=-3;spacingRight=-3;points=[];labelBackgroundColor=none;rounded=0;html=1;whiteSpace=wrap;" vertex="1" parent="1">
            <mxGeometry x="1456" y="742" width="158" height="60" as="geometry" />
          </mxCell>
        </UserObject>
        <UserObject label="&lt;div style=&quot;font-size: 1px&quot;&gt;&lt;/div&gt;" tags="Background" id="xVOmkap1mZU-mU1LHdQ8-102">
          <mxCell style="verticalAlign=middle;align=center;overflow=width;vsdxID=2046;fillColor=#fff2cc;gradientColor=none;shape=stencil(nZBLDoAgDERP0z3SIyjew0SURgSD+Lu9kMZoXLhwN9O+tukAlrNpJg1SzDH4QW/URgNYgZTkjA4UkwJUgGXng+6DX1zLfmoymdXo17xh5zmRJ6Q42BWCfc2oJfdAr+Yv+AP9Cb7OJ3H/2JG1HNGz/84klThPVCc=);strokeColor=#bf9000;spacingTop=-3;spacingBottom=-3;spacingLeft=-3;spacingRight=-3;points=[];labelBackgroundColor=none;rounded=0;html=1;whiteSpace=wrap;" vertex="1" parent="1">
            <mxGeometry x="1735" y="742" width="160" height="60" as="geometry" />
          </mxCell>
        </UserObject>
        <UserObject label="" tags="Background" id="xVOmkap1mZU-mU1LHdQ8-103">
          <mxCell style="vsdxID=2049;fillColor=none;gradientColor=none;strokeColor=none;spacingTop=-3;spacingBottom=-3;spacingLeft=-3;spacingRight=-3;points=[];labelBackgroundColor=none;rounded=0;html=1;whiteSpace=wrap;" vertex="1" parent="1">
            <mxGeometry x="755" y="302" width="62" height="50" as="geometry" />
          </mxCell>
        </UserObject>
        <mxCell id="xVOmkap1mZU-mU1LHdQ8-104" style="vsdxID=2050;fillColor=none;gradientColor=none;strokeColor=none;spacingTop=-3;spacingBottom=-3;spacingLeft=-3;spacingRight=-3;points=[];labelBackgroundColor=none;rounded=0;html=1;whiteSpace=wrap;" vertex="1" parent="xVOmkap1mZU-mU1LHdQ8-103">
          <mxGeometry width="62" height="50" as="geometry" />
        </mxCell>
        <mxCell id="xVOmkap1mZU-mU1LHdQ8-105" style="vsdxID=2051;fillColor=#7fba00;gradientColor=none;shape=stencil(lZTJrsIwDEW/JlvLceY1w38gUWj0SotKmf6eliBBwiOQneMeW7fXiZmYHerVvmKEh6Hv/qqzXw81E3NG5Nu66v0wRkwsmJhtur7a9t2xXYfzfjWRU7TrTlOHS6izHORURHgNCYnA6Z5ZBr7x7SuPoGKewLrPvCKQPCrADIwRSaD0Z1gaUO7XztyVyeYWdIktsXCnwWVgBTbCOeaUp0o0Qka4SOeZbS4MUInycSQkogLFgfjPE7WPP/+XNQaMKWmuKTHyi3qdWpn15u1l5I13MrEyP1UsujHFr/QrPwbPlbDxTRM2yuv3dIWMqbB+xOIG);strokeColor=none;strokeWidth=17;spacingTop=-3;spacingBottom=-3;spacingLeft=-3;spacingRight=-3;points=[];labelBackgroundColor=none;rounded=0;html=1;whiteSpace=wrap;" vertex="1" parent="xVOmkap1mZU-mU1LHdQ8-104">
          <mxGeometry x="11" y="7" width="39" height="31" as="geometry" />
        </mxCell>
        <mxCell id="xVOmkap1mZU-mU1LHdQ8-106" style="vsdxID=2052;fillColor=#3999c6;gradientColor=none;shape=stencil(vVHLDsIgEPwajiQI6RfU+h8bu22JCGRB2/69kG1iazx58DazM/vIjjBtmiCi0CplCjecbZ8nYc5Ca+snJJsLEqYTph0C4Ujh4XvmEaqzont41gkL96naodXKrGF6YSfQtUi0OXXDVlqPfJNP6usotUhYbJIUMmQb/GGrAxpRljVycDBuc1hKM2LclX8/7H9nFfB+82Cd45T2+mcspcSRmu4F);strokeColor=none;strokeWidth=17;spacingTop=-3;spacingBottom=-3;spacingLeft=-3;spacingRight=-3;points=[];labelBackgroundColor=none;rounded=0;html=1;whiteSpace=wrap;" vertex="1" parent="xVOmkap1mZU-mU1LHdQ8-104">
          <mxGeometry x="46" y="34" width="7" height="7" as="geometry" />
        </mxCell>
        <mxCell id="xVOmkap1mZU-mU1LHdQ8-107" style="vsdxID=2053;fillColor=#3999c6;gradientColor=none;shape=stencil(vVHLDsIgEPwajiQI6RfU+h8bu22JCGRB2/69kG1iazx58DazM/vIjjBtmiCi0CplCjecbZ8nYc5Ca+snJJsLEqYTph0C4Ujh4XvmEaqzont41gkL96naodXKrGF6YSfQtUi0OXXDVlqPfJNP6usotUhYbJIUMmQb/GGrAxpRljVycDBuc1hKM2LclX8/7H9nFfB+82Cd45T2+mcspcSRmu4F);strokeColor=none;strokeWidth=17;spacingTop=-3;spacingBottom=-3;spacingLeft=-3;spacingRight=-3;points=[];labelBackgroundColor=none;rounded=0;html=1;whiteSpace=wrap;" vertex="1" parent="xVOmkap1mZU-mU1LHdQ8-104">
          <mxGeometry x="33" y="34" width="7" height="7" as="geometry" />
        </mxCell>
        <mxCell id="xVOmkap1mZU-mU1LHdQ8-108" style="vsdxID=2054;fillColor=#804998;gradientColor=none;shape=stencil(vVHLDsIgEPwajiQI6RfU+h8bu22JCGRB2/69kG1iazx58DazM/vIjjBtmiCi0CplCjecbZ8nYc5Ca+snJJsLEqYTph0C4Ujh4XvmEaqzont41gkL96naodXKrGF6YSfQtUi0OXXDVlqPfJNP6usotUhYbJIUMmQb/GGrAxpRljVycDBuc1hKM2LclX8/7H9nFfB+82Cd45T2+mcspcSRmu4F);strokeColor=none;strokeWidth=17;spacingTop=-3;spacingBottom=-3;spacingLeft=-3;spacingRight=-3;points=[];labelBackgroundColor=none;rounded=0;html=1;whiteSpace=wrap;" vertex="1" parent="xVOmkap1mZU-mU1LHdQ8-104">
          <mxGeometry x="24" y="2" width="12" height="12" as="geometry" />
        </mxCell>
        <mxCell id="xVOmkap1mZU-mU1LHdQ8-109" style="vsdxID=2055;fillColor=#0072c6;gradientColor=none;shape=stencil(vVHLDsIgEPwajiQI6RfU+h8bu22JCGRB2/69kG1iazx58DazM/vIjjBtmiCi0CplCjecbZ8nYc5Ca+snJJsLEqYTph0C4Ujh4XvmEaqzont41gkL96naodXKrGF6YSfQtUi0OXXDVlqPfJNP6usotUhYbJIUMmQb/GGrAxpRljVycDBuc1hKM2LclX8/7H9nFfB+82Cd45T2+mcspcSRmu4F);strokeColor=none;strokeWidth=17;spacingTop=-3;spacingBottom=-3;spacingLeft=-3;spacingRight=-3;points=[];labelBackgroundColor=none;rounded=0;html=1;whiteSpace=wrap;" vertex="1" parent="xVOmkap1mZU-mU1LHdQ8-104">
          <mxGeometry x="13" y="18" width="9" height="9" as="geometry" />
        </mxCell>
        <mxCell id="xVOmkap1mZU-mU1LHdQ8-110" style="vsdxID=2056;fillColor=#0072c6;gradientColor=none;shape=stencil(vVHLDsIgEPwajiQI6RfU+h8bu22JCGRB2/69kG1iazx58DazM/vIjjBtmiCi0CplCjecbZ8nYc5Ca+snJJsLEqYTph0C4Ujh4XvmEaqzont41gkL96naodXKrGF6YSfQtUi0OXXDVlqPfJNP6usotUhYbJIUMmQb/GGrAxpRljVycDBuc1hKM2LclX8/7H9nFfB+82Cd45T2+mcspcSRmu4F);strokeColor=none;strokeWidth=17;spacingTop=-3;spacingBottom=-3;spacingLeft=-3;spacingRight=-3;points=[];labelBackgroundColor=none;rounded=0;html=1;whiteSpace=wrap;" vertex="1" parent="xVOmkap1mZU-mU1LHdQ8-104">
          <mxGeometry x="38" y="18" width="9" height="9" as="geometry" />
        </mxCell>
        <mxCell id="xVOmkap1mZU-mU1LHdQ8-111" style="vsdxID=2057;fillColor=#3999c6;gradientColor=none;shape=stencil(vVHLDsIgEPwajiQI6RfU+h8bu22JCGRB2/69kG1iazx58DazM/vIjjBtmiCi0CplCjecbZ8nYc5Ca+snJJsLEqYTph0C4Ujh4XvmEaqzont41gkL96naodXKrGF6YSfQtUi0OXXDVlqPfJNP6usotUhYbJIUMmQb/GGrAxpRljVycDBuc1hKM2LclX8/7H9nFfB+82Cd45T2+mcspcSRmu4F);strokeColor=none;strokeWidth=17;spacingTop=-3;spacingBottom=-3;spacingLeft=-3;spacingRight=-3;points=[];labelBackgroundColor=none;rounded=0;html=1;whiteSpace=wrap;" vertex="1" parent="xVOmkap1mZU-mU1LHdQ8-104">
          <mxGeometry x="21" y="34" width="7" height="7" as="geometry" />
        </mxCell>
        <mxCell id="xVOmkap1mZU-mU1LHdQ8-112" style="vsdxID=2058;fillColor=#3999c6;gradientColor=none;shape=stencil(vVHLDsIgEPwajiQI6RfU+h8bu22JCGRB2/69kG1iazx58DazM/vIjjBtmiCi0CplCjecbZ8nYc5Ca+snJJsLEqYTph0C4Ujh4XvmEaqzont41gkL96naodXKrGF6YSfQtUi0OXXDVlqPfJNP6usotUhYbJIUMmQb/GGrAxpRljVycDBuc1hKM2LclX8/7H9nFfB+82Cd45T2+mcspcSRmu4F);strokeColor=none;strokeWidth=17;spacingTop=-3;spacingBottom=-3;spacingLeft=-3;spacingRight=-3;points=[];labelBackgroundColor=none;rounded=0;html=1;whiteSpace=wrap;" vertex="1" parent="xVOmkap1mZU-mU1LHdQ8-104">
          <mxGeometry x="8" y="34" width="7" height="7" as="geometry" />
        </mxCell>
        <mxCell id="xVOmkap1mZU-mU1LHdQ8-113" style="vsdxID=2059;fillColor=#7a7a7a;gradientColor=none;shape=stencil(vVfbcoMgEP0aH93hogLPafofTmMSpzZm0DbJ3xfrdTHS1kl4E1l2OcvZPRDwTXVMz1nASFXr8j275Lv6GPCXgLH8dMx0XpuvgG8DvtmXOjvo8vO0a8fntLFsvj7Kr8bDtV1HVbOEkVs3JORn/NrapvrNzOnOloOgrbXuzCOIu/W9OwEJcqgUxJ1FmF7zKtRlndZ5eWqn22ikSPUhC020cF+kBzRVXbLsPPlNp/sr8tMES4QiS9Vt5S4WCb25HqADQ1gIdkehz9XzkeDQVIKky1AEKIWhKJD4WHBmDNLIF5IZIUjHh7tQGCiLYRwSiqAYB9hhAon0hUbgPCYQSxcYu1w48BiBwUjGc34UFLIMBYce2b0AJVEzKBxBwamRHCLmC8qMEsrsjv2TZZhk1PZo+oV4HsvsPtvnbuyzfQm727aPgnYKBhaXns23O0f4b2mRDHAbI/6URVmF2jfQtdIynNfTKt91gmRJ2dbKi5WeQXk9gJmxYrhwrBUYoWyPQzfxwTS+0EfXSoyybkUPv8Y4GrMV+5d7zB9ExsrOKMAewMx4MVw8VoqMkJZDCoI/FI1TY4SV7GhIv6t7+yhph2qYj/Els8+Lon0ITeftl4/51b6a+PYb);strokeColor=none;strokeWidth=17;spacingTop=-3;spacingBottom=-3;spacingLeft=-3;spacingRight=-3;points=[];labelBackgroundColor=none;rounded=0;html=1;whiteSpace=wrap;" vertex="1" parent="xVOmkap1mZU-mU1LHdQ8-104">
          <mxGeometry width="62" height="50" as="geometry" />
        </mxCell>
        <UserObject label="&lt;div style=&quot;font-size: 1px&quot;&gt;&lt;/div&gt;" tags="Background" id="xVOmkap1mZU-mU1LHdQ8-114">
          <mxCell style="verticalAlign=middle;align=center;overflow=width;vsdxID=1426;fillColor=#fff2cc;gradientColor=none;shape=stencil(nZBLDoAgDERP0z3SIyjew0SURgSD+Lu9kMZoXLhwN9O+tukAlrNpJg1SzDH4QW/URgNYgZTkjA4UkwJUgGXng+6DX1zLfmoymdXo17xh5zmRJ6Q42BWCfc2oJfdAr+Yv+AP9Cb7OJ3H/2JG1HNGz/84klThPVCc=);strokeColor=#bf9000;spacingTop=-3;spacingBottom=-3;spacingLeft=-3;spacingRight=-3;points=[];labelBackgroundColor=none;rounded=0;html=1;whiteSpace=wrap;" vertex="1" parent="1">
            <mxGeometry x="1467" y="752" width="158" height="60" as="geometry" />
          </mxCell>
        </UserObject>
        <UserObject label="&lt;div style=&quot;font-size: 1px&quot;&gt;&lt;font style=&quot;font-size:22.58px;font-family:Segoe UI Semibold;color:#000000;direction:ltr;letter-spacing:0px;line-height:120%;opacity:1&quot;&gt;Corp&lt;br/&gt;Subscription(s)&lt;br/&gt;&lt;/font&gt;&lt;/div&gt;" tags="Background" id="xVOmkap1mZU-mU1LHdQ8-115">
          <mxCell style="verticalAlign=middle;align=center;overflow=width;vsdxID=1427;fillColor=#fff2cc;gradientColor=none;shape=stencil(nZBLDoAgDERP0z3SIyjew0SURgSD+Lu9kMZoXLhwN9O+tukAlrNpJg1SzDH4QW/URgNYgZTkjA4UkwJUgGXng+6DX1zLfmoymdXo17xh5zmRJ6Q42BWCfc2oJfdAr+Yv+AP9Cb7OJ3H/2JG1HNGz/84klThPVCc=);strokeColor=#bf9000;spacingTop=-3;spacingBottom=-3;spacingLeft=-3;spacingRight=-3;points=[];labelBackgroundColor=none;rounded=0;html=1;whiteSpace=wrap;" vertex="1" parent="1">
            <mxGeometry x="1476" y="762" width="158" height="60" as="geometry" />
          </mxCell>
        </UserObject>
        <UserObject label="&lt;div style=&quot;font-size: 1px&quot;&gt;&lt;/div&gt;" tags="Background" id="xVOmkap1mZU-mU1LHdQ8-116">
          <mxCell style="verticalAlign=middle;align=center;overflow=width;vsdxID=1428;fillColor=#fff2cc;gradientColor=none;shape=stencil(nZBLDoAgDERP0z3SIyjew0SURgSD+Lu9kMZoXLhwN9O+tukAlrNpJg1SzDH4QW/URgNYgZTkjA4UkwJUgGXng+6DX1zLfmoymdXo17xh5zmRJ6Q42BWCfc2oJfdAr+Yv+AP9Cb7OJ3H/2JG1HNGz/84klThPVCc=);strokeColor=#bf9000;spacingTop=-3;spacingBottom=-3;spacingLeft=-3;spacingRight=-3;points=[];labelBackgroundColor=none;rounded=0;html=1;whiteSpace=wrap;" vertex="1" parent="1">
            <mxGeometry x="1743" y="752" width="160" height="60" as="geometry" />
          </mxCell>
        </UserObject>
        <UserObject label="&lt;div style=&quot;font-size: 1px&quot;&gt;&lt;font style=&quot;font-size:22.58px;font-family:Segoe UI Semibold;color:#000000;direction:ltr;letter-spacing:0px;line-height:120%;opacity:1&quot;&gt;Online&lt;br/&gt;Subscription(s)&lt;br/&gt;&lt;/font&gt;&lt;/div&gt;" tags="Background" id="xVOmkap1mZU-mU1LHdQ8-117">
          <mxCell style="verticalAlign=middle;align=center;overflow=width;vsdxID=1429;fillColor=#fff2cc;gradientColor=none;shape=stencil(nZBLDoAgDERP0z3SIyjew0SURgSD+Lu9kMZoXLhwN9O+tukAlrNpJg1SzDH4QW/URgNYgZTkjA4UkwJUgGXng+6DX1zLfmoymdXo17xh5zmRJ6Q42BWCfc2oJfdAr+Yv+AP9Cb7OJ3H/2JG1HNGz/84klThPVCc=);strokeColor=#bf9000;spacingTop=-3;spacingBottom=-3;spacingLeft=-3;spacingRight=-3;points=[];labelBackgroundColor=none;rounded=0;html=1;whiteSpace=wrap;" vertex="1" parent="1">
            <mxGeometry x="1755" y="762" width="160" height="60" as="geometry" />
          </mxCell>
        </UserObject>
        <UserObject label="&lt;div style=&quot;font-size: 1px&quot;&gt;&lt;font style=&quot;font-size:22.58px;font-family:Segoe UI Semibold;color:#000000;direction:ltr;letter-spacing:0px;line-height:120%;opacity:1&quot;&gt;Decommissioned&lt;br/&gt;Subscription(&lt;/font&gt;&lt;font style=&quot;font-size:22.58px;font-family:Segoe UI Semibold;color:#000000;direction:ltr;letter-spacing:0px;line-height:120%;opacity:1&quot;&gt;s&lt;/font&gt;&lt;font style=&quot;font-size:22.58px;font-family:Segoe UI Semibold;color:#000000;direction:ltr;letter-spacing:0px;line-height:120%;opacity:1&quot;&gt;)&lt;br/&gt;&lt;/font&gt;&lt;/div&gt;" tags="Background" id="xVOmkap1mZU-mU1LHdQ8-118">
          <mxCell style="verticalAlign=middle;align=center;overflow=width;vsdxID=1430;fillColor=#fff2cc;gradientColor=none;shape=stencil(nZBLDoAgDERP0z3SIyjew0SURgSD+Lu9kMZoXLhwN9O+tukAlrNpJg1SzDH4QW/URgNYgZTkjA4UkwJUgGXng+6DX1zLfmoymdXo17xh5zmRJ6Q42BWCfc2oJfdAr+Yv+AP9Cb7OJ3H/2JG1HNGz/84klThPVCc=);strokeColor=#bf9000;spacingTop=-3;spacingBottom=-3;spacingLeft=-3;spacingRight=-3;points=[];labelBackgroundColor=none;rounded=0;html=1;whiteSpace=wrap;" vertex="1" parent="1">
            <mxGeometry x="1945" y="752" width="200" height="60" as="geometry" />
          </mxCell>
        </UserObject>
        <UserObject label="&lt;div style=&quot;font-size: 1px&quot;&gt;&lt;font style=&quot;font-size:22.58px;font-family:Segoe UI Semibold;color:#000000;direction:ltr;letter-spacing:0px;line-height:120%;opacity:1&quot;&gt;Sandbox&lt;br/&gt;&lt;/font&gt;&lt;font style=&quot;font-size:22.58px;font-family:Segoe UI Semibold;color:#000000;direction:ltr;letter-spacing:0px;line-height:120%;opacity:1&quot;&gt;Subscription(s)&lt;br/&gt;&lt;/font&gt;&lt;/div&gt;" tags="Background" id="xVOmkap1mZU-mU1LHdQ8-119">
          <mxCell style="verticalAlign=middle;align=center;overflow=width;vsdxID=1431;fillColor=#fff2cc;gradientColor=none;shape=stencil(nZBLDoAgDERP0z3SIyjew0SURgSD+Lu9kMZoXLhwN9O+tukAlrNpJg1SzDH4QW/URgNYgZTkjA4UkwJUgGXng+6DX1zLfmoymdXo17xh5zmRJ6Q42BWCfc2oJfdAr+Yv+AP9Cb7OJ3H/2JG1HNGz/84klThPVCc=);strokeColor=#bf9000;spacingTop=-3;spacingBottom=-3;spacingLeft=-3;spacingRight=-3;points=[];labelBackgroundColor=none;rounded=0;html=1;whiteSpace=wrap;" vertex="1" parent="1">
            <mxGeometry x="2227" y="752" width="158" height="60" as="geometry" />
          </mxCell>
        </UserObject>
        <UserObject label="" tags="Background" id="xVOmkap1mZU-mU1LHdQ8-120">
          <mxCell style="vsdxID=2012;edgeStyle=none;startArrow=none;endArrow=none;startSize=5;endSize=5;strokeWidth=3;strokeColor=#2f2f2f;spacingTop=-3;spacingBottom=-3;spacingLeft=-3;spacingRight=-3;verticalAlign=middle;html=1;labelBackgroundColor=none;rounded=0;" edge="1" parent="1">
            <mxGeometry relative="1" as="geometry">
              <Array as="points" />
              <mxPoint x="2035" y="342" as="sourcePoint" />
              <mxPoint x="2035" y="742" as="targetPoint" />
            </mxGeometry>
          </mxCell>
        </UserObject>
        <UserObject label="" tags="Background" id="xVOmkap1mZU-mU1LHdQ8-121">
          <mxCell style="vsdxID=2017;edgeStyle=none;startArrow=none;endArrow=none;startSize=5;endSize=5;strokeWidth=3;strokeColor=#2f2f2f;spacingTop=-3;spacingBottom=-3;spacingLeft=-3;spacingRight=-3;verticalAlign=middle;html=1;labelBackgroundColor=none;rounded=0;" edge="1" parent="1">
            <mxGeometry relative="1" as="geometry">
              <Array as="points" />
              <mxPoint x="1675" y="562" as="sourcePoint" />
              <mxPoint x="1675" y="463" as="targetPoint" />
            </mxGeometry>
          </mxCell>
        </UserObject>
        <UserObject label="" tags="Background" id="xVOmkap1mZU-mU1LHdQ8-122">
          <mxCell style="vsdxID=2047;edgeStyle=none;startArrow=none;endArrow=none;startSize=5;endSize=5;strokeWidth=3;strokeColor=#2f2f2f;spacingTop=-3;spacingBottom=-3;spacingLeft=-3;spacingRight=-3;verticalAlign=middle;html=1;labelBackgroundColor=none;rounded=0;" edge="1" parent="1">
            <mxGeometry relative="1" as="geometry">
              <Array as="points" />
              <mxPoint x="1535" y="642" as="sourcePoint" />
              <mxPoint x="1535" y="742" as="targetPoint" />
            </mxGeometry>
          </mxCell>
        </UserObject>
        <UserObject label="" tags="Background" id="xVOmkap1mZU-mU1LHdQ8-123">
          <mxCell style="vsdxID=2048;edgeStyle=none;startArrow=none;endArrow=none;startSize=5;endSize=5;strokeWidth=3;strokeColor=#2f2f2f;spacingTop=-3;spacingBottom=-3;spacingLeft=-3;spacingRight=-3;verticalAlign=middle;html=1;labelBackgroundColor=none;rounded=0;" edge="1" parent="1">
            <mxGeometry relative="1" as="geometry">
              <Array as="points" />
              <mxPoint x="1815" y="642" as="sourcePoint" />
              <mxPoint x="1815" y="742" as="targetPoint" />
            </mxGeometry>
          </mxCell>
        </UserObject>
        <UserObject label="&lt;div style=&quot;font-size: 1px&quot;&gt;&lt;font style=&quot;font-size:25.4px;font-family:Segoe UI Semibold;color:#000000;direction:ltr;letter-spacing:0px;line-height:120%;opacity:1&quot;&gt;[[CustomerCode_Lower]]&lt;br&gt;&lt;/font&gt;&lt;/div&gt;" tags="Background" id="xVOmkap1mZU-mU1LHdQ8-80">
          <mxCell style="verticalAlign=middle;align=center;overflow=width;vsdxID=2023;fillColor=#FFFFFF;gradientColor=none;shape=stencil(nZBLDoAgDERP0z3SIyjew0SURgSD+Lu9kMZoXLhwN9O+tukAlrNpJg1SzDH4QW/URgNYgZTkjA4UkwJUgGXng+6DX1zLfmoymdXo17xh5zmRJ6Q42BWCfc2oJfdAr+Yv+AP9Cb7OJ3H/2JG1HNGz/84klThPVCc=);strokeColor=#000000;spacingTop=-3;spacingBottom=-3;spacingLeft=-3;spacingRight=-3;points=[];labelBackgroundColor=none;rounded=0;html=1;whiteSpace=wrap;" vertex="1" parent="1">
            <mxGeometry x="1935" y="382" width="200" height="60" as="geometry" />
          </mxCell>
        </UserObject>
        <UserObject label="&lt;div style=&quot;font-size: 1px&quot;&gt;&lt;font style=&quot;font-size:25.4px;font-family:Segoe UI Semibold;color:#000000;direction:ltr;letter-spacing:0px;line-height:120%;opacity:1&quot;&gt;La&lt;/font&gt;&lt;font style=&quot;font-size:25.4px;font-family:Segoe UI Semibold;color:#000000;direction:ltr;letter-spacing:0px;line-height:120%;opacity:1&quot;&gt;nding &lt;/font&gt;&lt;font style=&quot;font-size:25.4px;font-family:Segoe UI Semibold;color:#000000;direction:ltr;letter-spacing:0px;line-height:120%;opacity:1&quot;&gt;Z&lt;/font&gt;&lt;font style=&quot;font-size:25.4px;font-family:Segoe UI Semibold;color:#000000;direction:ltr;letter-spacing:0px;line-height:120%;opacity:1&quot;&gt;ones&lt;br/&gt;&lt;/font&gt;&lt;/div&gt;" tags="Background" id="xVOmkap1mZU-mU1LHdQ8-77">
          <mxCell style="verticalAlign=middle;align=center;overflow=width;vsdxID=2020;fillColor=#FFFFFF;gradientColor=none;shape=stencil(nZBLDoAgDERP0z3SIyjew0SURgSD+Lu9kMZoXLhwN9O+tukAlrNpJg1SzDH4QW/URgNYgZTkjA4UkwJUgGXng+6DX1zLfmoymdXo17xh5zmRJ6Q42BWCfc2oJfdAr+Yv+AP9Cb7OJ3H/2JG1HNGz/84klThPVCc=);strokeColor=#000000;spacingTop=-3;spacingBottom=-3;spacingLeft=-3;spacingRight=-3;points=[];labelBackgroundColor=none;rounded=0;html=1;whiteSpace=wrap;" vertex="1" parent="1">
            <mxGeometry x="1555" y="482" width="240" height="60" as="geometry" />
          </mxCell>
        </UserObject>
        <UserObject label="&lt;div style=&quot;font-size: 1px&quot;&gt;&lt;font style=&quot;font-size:25.4px;font-family:Segoe UI Semibold;color:#000000;direction:ltr;letter-spacing:0px;line-height:120%;opacity:1&quot;&gt;D&lt;/font&gt;&lt;font style=&quot;font-size:25.4px;font-family:Segoe UI Semibold;color:#000000;direction:ltr;letter-spacing:0px;line-height:120%;opacity:1&quot;&gt;ecommissioned&lt;br/&gt;&lt;/font&gt;&lt;/div&gt;" tags="Background" id="xVOmkap1mZU-mU1LHdQ8-78">
          <mxCell style="verticalAlign=middle;align=center;overflow=width;vsdxID=2021;fillColor=#FFFFFF;gradientColor=none;shape=stencil(nZBLDoAgDERP0z3SIyjew0SURgSD+Lu9kMZoXLhwN9O+tukAlrNpJg1SzDH4QW/URgNYgZTkjA4UkwJUgGXng+6DX1zLfmoymdXo17xh5zmRJ6Q42BWCfc2oJfdAr+Yv+AP9Cb7OJ3H/2JG1HNGz/84klThPVCc=);strokeColor=#000000;spacingTop=-3;spacingBottom=-3;spacingLeft=-3;spacingRight=-3;points=[];labelBackgroundColor=none;rounded=0;html=1;whiteSpace=wrap;" vertex="1" parent="1">
            <mxGeometry x="1935" y="482" width="200" height="60" as="geometry" />
          </mxCell>
        </UserObject>
      </root>
    </mxGraphModel>
  </diagram>
</mxfile>
